Title:
Shun Li and the Poet Aka Io Sono Li

Country:
Italy/China

Language:
Italian/Mandarin

Subtitle:
Spanish

Director:
Andrea Segre

Writers:
Andrea Segre (story), Andrea Segre (screenplay)

Stars:
Tao Zhao, Rade Serbedzija, Marco Paolini 

Synopsis:
A study of the friendship between a Chinese woman and a fisherman who came to Italy from Yugoslavia many years ago, who live in a small city-island in the Veneto lagoon. 

Trivia:

* Won 3 prizes in Venice Film Festival 2011

* Won David Donatello 2012 - Best Actress (Migliore Attrice Protagonista):
Tao Zhao 

Imdb: 
http://www.imdb.com/title/tt2036388

Trailer: 
http://www.bandes-annonces.fr/film/bande-annonce-lapetitevenise.html


Media Info:

General
Complete name                            : Shun.Li.and.the.Poet.[Io.Sono.Li].2011.DVDRip.XviD.HORiZON-ArtSubs
Format                                   : AVI
Format/Info                              : Audio Video Interleave
File size                                : 1.37 GiB
Duration                                 : 1h 33mn
Overall bit rate                         : 2 095 Kbps
Writing application                      : FairUse Wizard - http://fairusewizard.com
Writing library                          : The best and REALLY easy backup tool

Video
ID                                       : 0
Format                                   : MPEG-4 Visual
Format profile                           : Advanced Simple@L5
Format settings, BVOP                    : 1
Format settings, QPel                    : No
Format settings, GMC                     : No warppoints
Format settings, Matrix                  : Default (MPEG)
Muxing mode                              : Packed bitstream
Codec ID                                 : XVID
Codec ID/Hint                            : XviD
Duration                                 : 1h 33mn
Bit rate                                 : 1 637 Kbps
Width                                    : 688 pixels
Height                                   : 288 pixels
Display aspect ratio                     : 2.40:1
Frame rate                               : 25.000 fps
Color space                              : YUV
Chroma subsampling                       : 4:2:0
Bit depth                                : 8 bits
Scan type                                : Progressive
Compression mode                         : Lossy
Bits/(Pixel*Frame)                       : 0.331
Stream size                              : 1.07 GiB (78%)
Writing library                          : XviD 1.2.0.dev47 (UTC 2006-11-01)

Audio
ID                                       : 1
Format                                   : AC-3
Format/Info                              : Audio Coding 3
Mode extension                           : CM (complete main)
Format settings, Endianness              : Big
Codec ID                                 : 2000
Duration                                 : 1h 33mn
Bit rate mode                            : Constant
Bit rate                                 : 448 Kbps
Channel(s)                               : 6 channels
Channel positions                        : Front: L C R, Side: L R, LFE
Sampling rate                            : 48.0 KHz
Bit depth                                : 16 bits
Compression mode                         : Lossy
Stream size                              : 299 MiB (21%)
Alignment                                : Split accross interleaves
Interleave, duration                     : 40 ms (1.00 video frame)
Interleave, preload duration             : 500 ms

